<mxfile host="app.diagrams.net" agent="Mozilla/5.0 (Macintosh; Intel Mac OS X 10_15_7) AppleWebKit/537.36 (KHTML, like Gecko) Chrome/137.0.0.0 Safari/537.36" version="28.0.0">
  <diagram name="Page-1" id="KuFfHwarqy_b3PMWaR2f">
    <mxGraphModel dx="2808" dy="1356" grid="1" gridSize="10" guides="1" tooltips="1" connect="1" arrows="1" fold="1" page="1" pageScale="1" pageWidth="850" pageHeight="1100" math="0" shadow="0">
      <root>
        <mxCell id="0" />
        <mxCell id="1" parent="0" />
        <mxCell id="rxfopTbYiydWgoVBPW0P-1" value="ðŸ’¬ Start: Warm Welcome" style="whiteSpace=wrap;strokeWidth=2;fillColor=#DFEFFA;fontColor=light-dark(#FFFFFF,#FFFFFF);strokeColor=#006EAF;fontStyle=0" vertex="1" parent="1">
          <mxGeometry x="641" y="20" width="237" height="54" as="geometry" />
        </mxCell>
        <mxCell id="rxfopTbYiydWgoVBPW0P-2" value="Interested in&#xa;B.Sc. Nursing?" style="rhombus;strokeWidth=2;whiteSpace=wrap;fillColor=light-dark(#FFFFFF,#D8EAD6);fontColor=light-dark(#000000,#000000);fontStyle=1;strokeColor=light-dark(#000000,#9DCF9F);" vertex="1" parent="1">
          <mxGeometry x="620.5" y="124" width="278" height="278" as="geometry" />
        </mxCell>
        <mxCell id="rxfopTbYiydWgoVBPW0P-3" value="No worries! If you change your mind, Iâ€™m here. Goodbye!" style="whiteSpace=wrap;strokeWidth=2;strokeColor=#006EAF;fillColor=#DFEFFA;fontStyle=0" vertex="1" parent="1">
          <mxGeometry x="336" y="520" width="260" height="102" as="geometry" />
        </mxCell>
        <mxCell id="rxfopTbYiydWgoVBPW0P-4" value="12th with&#xa;Biology?" style="rhombus;strokeWidth=2;whiteSpace=wrap;strokeColor=light-dark(#000000,#9DCF9F);fillColor=light-dark(#FFFFFF,#D8EAD6);fontColor=light-dark(#000000,#000000);fontStyle=1" vertex="1" parent="1">
          <mxGeometry x="650" y="547" width="194" height="194" as="geometry" />
        </mxCell>
        <mxCell id="rxfopTbYiydWgoVBPW0P-5" value="Please reply &#39;Yes&#39; or &#39;No&#39; to continue." style="whiteSpace=wrap;strokeWidth=2;strokeColor=light-dark(#000000,#DFB07C);fillColor=light-dark(#FFFFFF,#FFE7C8);fontStyle=0;fontColor=light-dark(#000000,#000000);" vertex="1" parent="1">
          <mxGeometry x="890" y="532" width="260" height="78" as="geometry" />
        </mxCell>
        <mxCell id="rxfopTbYiydWgoVBPW0P-6" value="Biology is required. Consider retaking itâ€”let me know if you need help!" style="whiteSpace=wrap;strokeWidth=2;strokeColor=#006EAF;fillColor=#DFEFFA;fontStyle=0" vertex="1" parent="1">
          <mxGeometry x="20" y="829" width="260" height="102" as="geometry" />
        </mxCell>
        <mxCell id="rxfopTbYiydWgoVBPW0P-7" value="Our program requires Biology in 12th grade." style="whiteSpace=wrap;strokeWidth=2;strokeColor=#006EAF;fillColor=#DFEFFA;fontStyle=0" vertex="1" parent="1">
          <mxGeometry x="330" y="841" width="260" height="78" as="geometry" />
        </mxCell>
        <mxCell id="rxfopTbYiydWgoVBPW0P-8" value="Please answer &#39;Yes&#39; or &#39;No.&#39;" style="whiteSpace=wrap;strokeWidth=2;fontStyle=0;fontColor=light-dark(#000000,#000000);fillColor=light-dark(#FFFFFF,#FFE7C8);" vertex="1" parent="1">
          <mxGeometry x="640" y="853" width="248" height="54" as="geometry" />
        </mxCell>
        <mxCell id="rxfopTbYiydWgoVBPW0P-9" value="Program snapshot&#xa;&amp; perks?" style="rhombus;strokeWidth=2;whiteSpace=wrap;strokeColor=light-dark(#000000,#9DCF9F);fillColor=light-dark(#FFFFFF,#D8EAD6);fontColor=light-dark(#000000,#000000);fontStyle=1" vertex="1" parent="1">
          <mxGeometry x="938" y="741" width="278" height="278" as="geometry" />
        </mxCell>
        <mxCell id="rxfopTbYiydWgoVBPW0P-10" value="3â€‘year, fullâ€‘time course with theory &amp; realâ€‘patient rounds.&#xa;â€¢ 100% placement support&#xa;â€¢ â‚¹25kâ€¯/mo stipend&#xa;â€¢ Nationally recognized" style="whiteSpace=wrap;strokeWidth=2;strokeColor=#006EAF;fillColor=#DFEFFA;fontStyle=0" vertex="1" parent="1">
          <mxGeometry x="788" y="1091" width="260" height="174" as="geometry" />
        </mxCell>
        <mxCell id="rxfopTbYiydWgoVBPW0P-11" value="Understood. Anything else youâ€™d like to ask?" style="whiteSpace=wrap;strokeWidth=2;fontStyle=0;fontColor=light-dark(#000000,#000000);fillColor=light-dark(#FFFFFF,#FFE7C8);" vertex="1" parent="1">
          <mxGeometry x="1262" y="4259" width="260" height="78" as="geometry" />
        </mxCell>
        <mxCell id="rxfopTbYiydWgoVBPW0P-12" value="Thanks for chatting! Reach out anytime. ðŸ˜Š" style="whiteSpace=wrap;strokeWidth=2;strokeColor=#006EAF;fillColor=#DFEFFA;fontStyle=0" vertex="1" parent="1">
          <mxGeometry x="1102" y="4522" width="260" height="78" as="geometry" />
        </mxCell>
        <mxCell id="rxfopTbYiydWgoVBPW0P-13" value="See fee&#xa;&amp; payment options?" style="rhombus;strokeWidth=2;whiteSpace=wrap;strokeColor=light-dark(#000000,#9DCF9F);fillColor=light-dark(#FFFFFF,#D8EAD6);fontColor=light-dark(#000000,#000000);fontStyle=1" vertex="1" parent="1">
          <mxGeometry x="779" y="1315" width="278" height="278" as="geometry" />
        </mxCell>
        <mxCell id="rxfopTbYiydWgoVBPW0P-14" value="Fees: â‚¹70k/yr (â‚¹60k tuition + â‚¹10k bus).&#xa;3 installments: â‚¹30k/â‚¹20k/â‚¹20k.&#xa;0% EMI available." style="whiteSpace=wrap;strokeWidth=2;strokeColor=#006EAF;fillColor=#DFEFFA;fontStyle=0" vertex="1" parent="1">
          <mxGeometry x="699" y="1666" width="260" height="126" as="geometry" />
        </mxCell>
        <mxCell id="rxfopTbYiydWgoVBPW0P-15" value="Housing &amp; training&#xa;info?" style="rhombus;strokeWidth=2;whiteSpace=wrap;strokeColor=light-dark(#000000,#9DCF9F);fillColor=light-dark(#FFFFFF,#D8EAD6);fontColor=light-dark(#000000,#000000);fontStyle=1" vertex="1" parent="1">
          <mxGeometry x="800" y="1842" width="234" height="234" as="geometry" />
        </mxCell>
        <mxCell id="rxfopTbYiydWgoVBPW0P-16" value="Hostel: 24Ã—7 water &amp; power, CCTV, private/shared rooms.&#xa;Clinical training from Semâ€¯1." style="whiteSpace=wrap;strokeWidth=2;strokeColor=#006EAF;fillColor=#DFEFFA;fontStyle=0" vertex="1" parent="1">
          <mxGeometry x="699" y="2149" width="260" height="150" as="geometry" />
        </mxCell>
        <mxCell id="rxfopTbYiydWgoVBPW0P-17" value="Explore Delhi&#xa;campus life?" style="rhombus;strokeWidth=2;whiteSpace=wrap;strokeColor=light-dark(#000000,#9DCF9F);fillColor=light-dark(#FFFFFF,#D8EAD6);fontColor=light-dark(#000000,#000000);fontStyle=1" vertex="1" parent="1">
          <mxGeometry x="792" y="2349" width="252" height="252" as="geometry" />
        </mxCell>
        <mxCell id="rxfopTbYiydWgoVBPW0P-18" value="Central Delhi location (5â€¯min Green Park Metro).&#xa;Nearby cafÃ©s, libraries &amp; lounges." style="whiteSpace=wrap;strokeWidth=2;strokeColor=#006EAF;fillColor=#DFEFFA;fontStyle=0" vertex="1" parent="1">
          <mxGeometry x="699" y="2673" width="260" height="126" as="geometry" />
        </mxCell>
        <mxCell id="rxfopTbYiydWgoVBPW0P-19" value="INC accreditation&#xa;info?" style="rhombus;strokeWidth=2;whiteSpace=wrap;strokeColor=light-dark(#000000,#9DCF9F);fillColor=light-dark(#FFFFFF,#D8EAD6);fontColor=light-dark(#000000,#000000);fontStyle=1" vertex="1" parent="1">
          <mxGeometry x="804" y="2849" width="227" height="227" as="geometry" />
        </mxCell>
        <mxCell id="rxfopTbYiydWgoVBPW0P-20" value="Accredited by INC, Delhi. License valid to 2030.&#xa;Curriculum INCâ€‘aligned." style="whiteSpace=wrap;strokeWidth=2;strokeColor=#006EAF;fillColor=#DFEFFA;fontStyle=0" vertex="1" parent="1">
          <mxGeometry x="699" y="3148" width="260" height="126" as="geometry" />
        </mxCell>
        <mxCell id="rxfopTbYiydWgoVBPW0P-21" value="Training Sites:&#xa;â€¢ Dist. Hospital, Backundpur&#xa;â€¢ Community Health Centres&#xa;â€¢ Reg. Hospital, Chartha&#xa;â€¢ Ranchi Neurosurgery &amp; Allied Science Hospital" style="whiteSpace=wrap;strokeWidth=2;strokeColor=#006EAF;fillColor=#DFEFFA;fontStyle=0" vertex="1" parent="1">
          <mxGeometry x="788" y="3324" width="260" height="198" as="geometry" />
        </mxCell>
        <mxCell id="rxfopTbYiydWgoVBPW0P-22" value="Scholarships &amp; Aid:&#xa;â€¢ Govt â‚¹18kâ€“23k&#xa;â€¢ Labour â‚¹40kâ€“48k&#xa;â€¢ Earlyâ€‘bird discount â‚¹5k" style="whiteSpace=wrap;strokeWidth=2;strokeColor=#006EAF;fillColor=#DFEFFA;fontStyle=0" vertex="1" parent="1">
          <mxGeometry x="788" y="3572" width="260" height="126" as="geometry" />
        </mxCell>
        <mxCell id="rxfopTbYiydWgoVBPW0P-23" value="Scholarship&#xa;help?" style="rhombus;strokeWidth=2;whiteSpace=wrap;strokeColor=light-dark(#000000,#9DCF9F);fillColor=light-dark(#FFFFFF,#D8EAD6);fontColor=light-dark(#000000,#000000);fontStyle=1" vertex="1" parent="1">
          <mxGeometry x="824" y="3748" width="186" height="186" as="geometry" />
        </mxCell>
        <mxCell id="rxfopTbYiydWgoVBPW0P-24" value="Hereâ€™s the application link and form details..." style="whiteSpace=wrap;strokeWidth=2;strokeColor=#006EAF;fillColor=#DFEFFA;fontStyle=0" vertex="1" parent="1">
          <mxGeometry x="633" y="4019" width="260" height="78" as="geometry" />
        </mxCell>
        <mxCell id="rxfopTbYiydWgoVBPW0P-25" value="Seats &amp; Steps:&#xa;â€¢ 60 seats only&#xa;â€¢ Biology, PNT, Age 17â€“35" style="whiteSpace=wrap;strokeWidth=2;strokeColor=#006EAF;fillColor=#DFEFFA;fontStyle=0" vertex="1" parent="1">
          <mxGeometry x="943" y="4007" width="260" height="102" as="geometry" />
        </mxCell>
        <mxCell id="rxfopTbYiydWgoVBPW0P-26" value="Ready to apply&#xa;or ask more?" style="rhombus;strokeWidth=2;whiteSpace=wrap;strokeColor=light-dark(#000000,#9DCF9F);fillColor=light-dark(#FFFFFF,#D8EAD6);fontColor=light-dark(#000000,#000000);fontStyle=1" vertex="1" parent="1">
          <mxGeometry x="934" y="4159" width="278" height="278" as="geometry" />
        </mxCell>
        <mxCell id="rxfopTbYiydWgoVBPW0P-27" value="Awesome! Apply here: https://apply.liaplus.com ðŸŽ‰" style="whiteSpace=wrap;strokeWidth=2;strokeColor=#006EAF;fillColor=#DFEFFA;fontStyle=0" vertex="1" parent="1">
          <mxGeometry x="761" y="4510" width="260" height="102" as="geometry" />
        </mxCell>
        <mxCell id="rxfopTbYiydWgoVBPW0P-28" value="" style="curved=1;startArrow=none;endArrow=block;exitX=0.5;exitY=1;entryX=0.5;entryY=0;rounded=0;" edge="1" parent="1" source="rxfopTbYiydWgoVBPW0P-1" target="rxfopTbYiydWgoVBPW0P-2">
          <mxGeometry relative="1" as="geometry">
            <Array as="points" />
          </mxGeometry>
        </mxCell>
        <mxCell id="rxfopTbYiydWgoVBPW0P-29" value="No" style="curved=1;startArrow=none;endArrow=block;exitX=0;exitY=0.8;entryX=0.5;entryY=0;rounded=0;" edge="1" parent="1" source="rxfopTbYiydWgoVBPW0P-2" target="rxfopTbYiydWgoVBPW0P-3">
          <mxGeometry relative="1" as="geometry">
            <Array as="points">
              <mxPoint x="466" y="438" />
            </Array>
          </mxGeometry>
        </mxCell>
        <mxCell id="rxfopTbYiydWgoVBPW0P-30" value="Yes" style="curved=1;startArrow=none;endArrow=block;exitX=0.45;exitY=1;entryX=0.5;entryY=0;rounded=0;" edge="1" parent="1" source="rxfopTbYiydWgoVBPW0P-2" target="rxfopTbYiydWgoVBPW0P-4">
          <mxGeometry relative="1" as="geometry">
            <Array as="points">
              <mxPoint x="743" y="438" />
            </Array>
          </mxGeometry>
        </mxCell>
        <mxCell id="rxfopTbYiydWgoVBPW0P-31" value="Other" style="curved=1;startArrow=none;endArrow=block;exitX=1;exitY=0.81;entryX=0.52;entryY=0.01;rounded=0;" edge="1" parent="1" source="rxfopTbYiydWgoVBPW0P-2" target="rxfopTbYiydWgoVBPW0P-5">
          <mxGeometry relative="1" as="geometry">
            <Array as="points">
              <mxPoint x="1038" y="438" />
            </Array>
          </mxGeometry>
        </mxCell>
        <mxCell id="rxfopTbYiydWgoVBPW0P-32" value="" style="curved=1;startArrow=none;endArrow=block;exitX=0.25;exitY=0.01;entryX=0.6;entryY=1;rounded=0;" edge="1" parent="1" source="rxfopTbYiydWgoVBPW0P-5" target="rxfopTbYiydWgoVBPW0P-2">
          <mxGeometry relative="1" as="geometry">
            <Array as="points">
              <mxPoint x="794" y="438" />
            </Array>
          </mxGeometry>
        </mxCell>
        <mxCell id="rxfopTbYiydWgoVBPW0P-33" value="No" style="curved=1;startArrow=none;endArrow=block;exitX=0;exitY=0.61;entryX=0.5;entryY=0;rounded=0;" edge="1" parent="1" source="rxfopTbYiydWgoVBPW0P-4" target="rxfopTbYiydWgoVBPW0P-6">
          <mxGeometry relative="1" as="geometry">
            <Array as="points">
              <mxPoint x="150" y="705" />
            </Array>
          </mxGeometry>
        </mxCell>
        <mxCell id="rxfopTbYiydWgoVBPW0P-34" value="OtherSubject" style="curved=1;startArrow=none;endArrow=block;exitX=0;exitY=0.73;entryX=0.5;entryY=0;rounded=0;" edge="1" parent="1" source="rxfopTbYiydWgoVBPW0P-4" target="rxfopTbYiydWgoVBPW0P-7">
          <mxGeometry relative="1" as="geometry">
            <Array as="points">
              <mxPoint x="460" y="705" />
            </Array>
          </mxGeometry>
        </mxCell>
        <mxCell id="rxfopTbYiydWgoVBPW0P-35" value="Other" style="curved=1;startArrow=none;endArrow=block;exitX=1;exitY=0.94;entryX=0.58;entryY=0;rounded=0;" edge="1" parent="1" source="rxfopTbYiydWgoVBPW0P-4" target="rxfopTbYiydWgoVBPW0P-8">
          <mxGeometry relative="1" as="geometry">
            <Array as="points">
              <mxPoint x="893" y="705" />
            </Array>
          </mxGeometry>
        </mxCell>
        <mxCell id="rxfopTbYiydWgoVBPW0P-36" value="" style="curved=1;startArrow=none;endArrow=block;exitX=0.49;exitY=0;entryX=0.5;entryY=1;rounded=0;" edge="1" parent="1" source="rxfopTbYiydWgoVBPW0P-8" target="rxfopTbYiydWgoVBPW0P-4">
          <mxGeometry relative="1" as="geometry">
            <Array as="points">
              <mxPoint x="743" y="705" />
            </Array>
          </mxGeometry>
        </mxCell>
        <mxCell id="rxfopTbYiydWgoVBPW0P-37" value="Yes" style="curved=1;startArrow=none;endArrow=block;exitX=1;exitY=0.7;entryX=0.5;entryY=0;rounded=0;" edge="1" parent="1" source="rxfopTbYiydWgoVBPW0P-4" target="rxfopTbYiydWgoVBPW0P-9">
          <mxGeometry relative="1" as="geometry">
            <Array as="points">
              <mxPoint x="1077" y="705" />
            </Array>
          </mxGeometry>
        </mxCell>
        <mxCell id="rxfopTbYiydWgoVBPW0P-38" value="Yes" style="curved=1;startArrow=none;endArrow=block;exitX=0.05;exitY=1;entryX=0.5;entryY=0;rounded=0;" edge="1" parent="1" source="rxfopTbYiydWgoVBPW0P-9" target="rxfopTbYiydWgoVBPW0P-10">
          <mxGeometry relative="1" as="geometry">
            <Array as="points">
              <mxPoint x="918" y="1055" />
            </Array>
          </mxGeometry>
        </mxCell>
        <mxCell id="rxfopTbYiydWgoVBPW0P-39" value="No" style="curved=1;startArrow=none;endArrow=block;exitX=1;exitY=0.78;entryX=0.5;entryY=0;rounded=0;" edge="1" parent="1" source="rxfopTbYiydWgoVBPW0P-9" target="rxfopTbYiydWgoVBPW0P-11">
          <mxGeometry relative="1" as="geometry">
            <Array as="points">
              <mxPoint x="1392" y="1055" />
            </Array>
          </mxGeometry>
        </mxCell>
        <mxCell id="rxfopTbYiydWgoVBPW0P-40" value="" style="curved=1;startArrow=none;endArrow=block;exitX=0.5;exitY=1;entryX=0.77;entryY=0;rounded=0;" edge="1" parent="1" source="rxfopTbYiydWgoVBPW0P-11" target="rxfopTbYiydWgoVBPW0P-12">
          <mxGeometry relative="1" as="geometry">
            <Array as="points">
              <mxPoint x="1392" y="4474" />
            </Array>
          </mxGeometry>
        </mxCell>
        <mxCell id="rxfopTbYiydWgoVBPW0P-41" value="" style="curved=1;startArrow=none;endArrow=block;exitX=0.5;exitY=1;entryX=0.5;entryY=0;rounded=0;" edge="1" parent="1" source="rxfopTbYiydWgoVBPW0P-10" target="rxfopTbYiydWgoVBPW0P-13">
          <mxGeometry relative="1" as="geometry">
            <Array as="points" />
          </mxGeometry>
        </mxCell>
        <mxCell id="rxfopTbYiydWgoVBPW0P-42" value="Yes" style="curved=1;startArrow=none;endArrow=block;exitX=0.25;exitY=1;entryX=0.5;entryY=0;rounded=0;" edge="1" parent="1" source="rxfopTbYiydWgoVBPW0P-13" target="rxfopTbYiydWgoVBPW0P-14">
          <mxGeometry relative="1" as="geometry">
            <Array as="points">
              <mxPoint x="829" y="1630" />
            </Array>
          </mxGeometry>
        </mxCell>
        <mxCell id="rxfopTbYiydWgoVBPW0P-43" value="No" style="curved=1;startArrow=none;endArrow=block;exitX=1;exitY=0.79;entryX=1;entryY=0.26;rounded=0;" edge="1" parent="1" source="rxfopTbYiydWgoVBPW0P-13" target="rxfopTbYiydWgoVBPW0P-15">
          <mxGeometry relative="1" as="geometry">
            <Array as="points">
              <mxPoint x="1216" y="1630" />
              <mxPoint x="1216" y="1817" />
            </Array>
          </mxGeometry>
        </mxCell>
        <mxCell id="rxfopTbYiydWgoVBPW0P-44" value="" style="curved=1;startArrow=none;endArrow=block;exitX=0.5;exitY=1;entryX=0.19;entryY=0;rounded=0;" edge="1" parent="1" source="rxfopTbYiydWgoVBPW0P-14" target="rxfopTbYiydWgoVBPW0P-15">
          <mxGeometry relative="1" as="geometry">
            <Array as="points">
              <mxPoint x="829" y="1817" />
            </Array>
          </mxGeometry>
        </mxCell>
        <mxCell id="rxfopTbYiydWgoVBPW0P-45" value="Yes" style="curved=1;startArrow=none;endArrow=block;exitX=0.21;exitY=1;entryX=0.5;entryY=0;rounded=0;" edge="1" parent="1" source="rxfopTbYiydWgoVBPW0P-15" target="rxfopTbYiydWgoVBPW0P-16">
          <mxGeometry relative="1" as="geometry">
            <Array as="points">
              <mxPoint x="829" y="2112" />
            </Array>
          </mxGeometry>
        </mxCell>
        <mxCell id="rxfopTbYiydWgoVBPW0P-46" value="No" style="curved=1;startArrow=none;endArrow=block;exitX=1;exitY=0.76;entryX=1;entryY=0.25;rounded=0;" edge="1" parent="1" source="rxfopTbYiydWgoVBPW0P-15" target="rxfopTbYiydWgoVBPW0P-17">
          <mxGeometry relative="1" as="geometry">
            <Array as="points">
              <mxPoint x="1216" y="2112" />
              <mxPoint x="1216" y="2324" />
            </Array>
          </mxGeometry>
        </mxCell>
        <mxCell id="rxfopTbYiydWgoVBPW0P-47" value="" style="curved=1;startArrow=none;endArrow=block;exitX=0.5;exitY=1;entryX=0.21;entryY=0;rounded=0;" edge="1" parent="1" source="rxfopTbYiydWgoVBPW0P-16" target="rxfopTbYiydWgoVBPW0P-17">
          <mxGeometry relative="1" as="geometry">
            <Array as="points">
              <mxPoint x="829" y="2324" />
            </Array>
          </mxGeometry>
        </mxCell>
        <mxCell id="rxfopTbYiydWgoVBPW0P-48" value="Yes" style="curved=1;startArrow=none;endArrow=block;exitX=0.23;exitY=1;entryX=0.5;entryY=0;rounded=0;" edge="1" parent="1" source="rxfopTbYiydWgoVBPW0P-17" target="rxfopTbYiydWgoVBPW0P-18">
          <mxGeometry relative="1" as="geometry">
            <Array as="points">
              <mxPoint x="829" y="2637" />
            </Array>
          </mxGeometry>
        </mxCell>
        <mxCell id="rxfopTbYiydWgoVBPW0P-49" value="No" style="curved=1;startArrow=none;endArrow=block;exitX=1;exitY=0.78;entryX=1;entryY=0.26;rounded=0;" edge="1" parent="1" source="rxfopTbYiydWgoVBPW0P-17" target="rxfopTbYiydWgoVBPW0P-19">
          <mxGeometry relative="1" as="geometry">
            <Array as="points">
              <mxPoint x="1211" y="2637" />
              <mxPoint x="1211" y="2824" />
            </Array>
          </mxGeometry>
        </mxCell>
        <mxCell id="rxfopTbYiydWgoVBPW0P-50" value="" style="curved=1;startArrow=none;endArrow=block;exitX=0.5;exitY=1;entryX=0.18;entryY=0;rounded=0;" edge="1" parent="1" source="rxfopTbYiydWgoVBPW0P-18" target="rxfopTbYiydWgoVBPW0P-19">
          <mxGeometry relative="1" as="geometry">
            <Array as="points">
              <mxPoint x="829" y="2824" />
            </Array>
          </mxGeometry>
        </mxCell>
        <mxCell id="rxfopTbYiydWgoVBPW0P-51" value="Yes" style="curved=1;startArrow=none;endArrow=block;exitX=0.21;exitY=1;entryX=0.5;entryY=0;rounded=0;" edge="1" parent="1" source="rxfopTbYiydWgoVBPW0P-19" target="rxfopTbYiydWgoVBPW0P-20">
          <mxGeometry relative="1" as="geometry">
            <Array as="points">
              <mxPoint x="829" y="3112" />
            </Array>
          </mxGeometry>
        </mxCell>
        <mxCell id="rxfopTbYiydWgoVBPW0P-52" value="No" style="curved=1;startArrow=none;endArrow=block;exitX=1;exitY=0.75;entryX=1;entryY=0.23;rounded=0;" edge="1" parent="1" source="rxfopTbYiydWgoVBPW0P-19" target="rxfopTbYiydWgoVBPW0P-21">
          <mxGeometry relative="1" as="geometry">
            <Array as="points">
              <mxPoint x="1216" y="3112" />
              <mxPoint x="1216" y="3299" />
            </Array>
          </mxGeometry>
        </mxCell>
        <mxCell id="rxfopTbYiydWgoVBPW0P-53" value="" style="curved=1;startArrow=none;endArrow=block;exitX=0.5;exitY=1;entryX=0.23;entryY=0;rounded=0;" edge="1" parent="1" source="rxfopTbYiydWgoVBPW0P-20" target="rxfopTbYiydWgoVBPW0P-21">
          <mxGeometry relative="1" as="geometry">
            <Array as="points">
              <mxPoint x="829" y="3299" />
            </Array>
          </mxGeometry>
        </mxCell>
        <mxCell id="rxfopTbYiydWgoVBPW0P-54" value="" style="curved=1;startArrow=none;endArrow=block;exitX=0.5;exitY=1;entryX=0.5;entryY=0;rounded=0;" edge="1" parent="1" source="rxfopTbYiydWgoVBPW0P-21" target="rxfopTbYiydWgoVBPW0P-22">
          <mxGeometry relative="1" as="geometry">
            <Array as="points" />
          </mxGeometry>
        </mxCell>
        <mxCell id="rxfopTbYiydWgoVBPW0P-55" value="" style="curved=1;startArrow=none;endArrow=block;exitX=0.5;exitY=1;entryX=0.5;entryY=0;rounded=0;" edge="1" parent="1" source="rxfopTbYiydWgoVBPW0P-22" target="rxfopTbYiydWgoVBPW0P-23">
          <mxGeometry relative="1" as="geometry">
            <Array as="points" />
          </mxGeometry>
        </mxCell>
        <mxCell id="rxfopTbYiydWgoVBPW0P-56" value="Yes" style="curved=1;startArrow=none;endArrow=block;exitX=0;exitY=0.92;entryX=0.5;entryY=0;rounded=0;" edge="1" parent="1" source="rxfopTbYiydWgoVBPW0P-23" target="rxfopTbYiydWgoVBPW0P-24">
          <mxGeometry relative="1" as="geometry">
            <Array as="points">
              <mxPoint x="763" y="3971" />
            </Array>
          </mxGeometry>
        </mxCell>
        <mxCell id="rxfopTbYiydWgoVBPW0P-57" value="No" style="curved=1;startArrow=none;endArrow=block;exitX=1;exitY=0.92;entryX=0.5;entryY=0;rounded=0;" edge="1" parent="1" source="rxfopTbYiydWgoVBPW0P-23" target="rxfopTbYiydWgoVBPW0P-25">
          <mxGeometry relative="1" as="geometry">
            <Array as="points">
              <mxPoint x="1073" y="3971" />
            </Array>
          </mxGeometry>
        </mxCell>
        <mxCell id="rxfopTbYiydWgoVBPW0P-58" value="" style="curved=1;startArrow=none;endArrow=block;exitX=0.5;exitY=1;entryX=0.5;entryY=0;rounded=0;" edge="1" parent="1" source="rxfopTbYiydWgoVBPW0P-25" target="rxfopTbYiydWgoVBPW0P-26">
          <mxGeometry relative="1" as="geometry">
            <Array as="points" />
          </mxGeometry>
        </mxCell>
        <mxCell id="rxfopTbYiydWgoVBPW0P-59" value="Apply" style="curved=1;startArrow=none;endArrow=block;exitX=0;exitY=0.98;entryX=0.5;entryY=0;rounded=0;" edge="1" parent="1" source="rxfopTbYiydWgoVBPW0P-26" target="rxfopTbYiydWgoVBPW0P-27">
          <mxGeometry relative="1" as="geometry">
            <Array as="points">
              <mxPoint x="891" y="4474" />
            </Array>
          </mxGeometry>
        </mxCell>
        <mxCell id="rxfopTbYiydWgoVBPW0P-60" value="Ask" style="curved=1;startArrow=none;endArrow=block;exitX=0.97;exitY=1;entryX=0.51;entryY=0;rounded=0;" edge="1" parent="1" source="rxfopTbYiydWgoVBPW0P-26" target="rxfopTbYiydWgoVBPW0P-12">
          <mxGeometry relative="1" as="geometry">
            <Array as="points">
              <mxPoint x="1238" y="4474" />
            </Array>
          </mxGeometry>
        </mxCell>
        <mxCell id="rxfopTbYiydWgoVBPW0P-61" value="No" style="curved=1;startArrow=none;endArrow=block;exitX=0.5;exitY=1;entryX=0.23;entryY=0;rounded=0;" edge="1" parent="1" source="rxfopTbYiydWgoVBPW0P-26" target="rxfopTbYiydWgoVBPW0P-12">
          <mxGeometry relative="1" as="geometry">
            <Array as="points">
              <mxPoint x="1073" y="4474" />
            </Array>
          </mxGeometry>
        </mxCell>
      </root>
    </mxGraphModel>
  </diagram>
</mxfile>
